<svg width="151" height="29" viewBox="0 0 151 29" version="1.1" xmlns="http://www.w3.org/2000/svg" xmlns:xlink="http://www.w3.org/1999/xlink">
<g id="Canvas" fill="none">
<g id="Star 2 Copy 24">
<path fill-rule="evenodd" clip-rule="evenodd" d="M 13.3148 21L 5.0858 25.3262L 6.6574 16.1631L 0 9.67376L 9.20029 8.33688L 13.3148 0L 17.4293 8.33688L 26.6296 9.67376L 19.9722 16.1631L 21.5438 25.3262L 13.3148 21Z" transform="translate(0.685059 2)" fill="#FFBA23"/>
</g>
<g id="Star 2 Copy 23">
<path fill-rule="evenodd" clip-rule="evenodd" d="M 14 21L 5.77101 25.3262L 7.3426 16.1631L 0.685209 9.67376L 9.8855 8.33688L 14 0L 18.1145 8.33688L 27.3148 9.67376L 20.6574 16.1631L 22.229 25.3262L 14 21Z" transform="translate(31 2)" fill="#FFBA23"/>
</g>
<g id="Star 2 Copy 22">
<path fill-rule="evenodd" clip-rule="evenodd" d="M 14 21L 5.77101 25.3262L 7.3426 16.1631L 0.685209 9.67376L 9.8855 8.33688L 14 0L 18.1145 8.33688L 27.3148 9.67376L 20.6574 16.1631L 22.229 25.3262L 14 21Z" transform="translate(61 2)" fill="#FFBA23"/>
<path d="M 14 21L 5.77101 25.3262L 7.3426 16.1631L 0.685209 9.67376L 9.8855 8.33688L 14 0L 18.1145 8.33688L 27.3148 9.67376L 20.6574 16.1631L 22.229 25.3262L 14 21Z" transform="translate(61 2)" stroke="#FFBA23"/>
</g>
<g id="Star 2 Copy 21">
<path fill-rule="evenodd" clip-rule="evenodd" d="M 14 21L 5.77101 25.3262L 7.3426 16.1631L 0.685209 9.67376L 9.8855 8.33688L 14 0L 18.1145 8.33688L 27.3148 9.67376L 20.6574 16.1631L 22.229 25.3262L 14 21Z" transform="translate(92 2)" fill="#FFBA23"/>
<path d="M 14 21L 5.77101 25.3262L 7.3426 16.1631L 0.685209 9.67376L 9.8855 8.33688L 14 0L 18.1145 8.33688L 27.3148 9.67376L 20.6574 16.1631L 22.229 25.3262L 14 21Z" transform="translate(92 2)" stroke="#FFBA23"/>
</g>
<g id="Star 2 Copy 20">
<path fill-rule="evenodd" clip-rule="evenodd" d="M 14 21L 5.77101 25.3262L 7.3426 16.1631L 0.685209 9.67376L 9.8855 8.33688L 14 0L 18.1145 8.33688L 27.3148 9.67376L 20.6574 16.1631L 22.229 25.3262L 14 21Z" transform="translate(122 2)" fill="#FFBA23"/>
<path d="M 14 21L 5.77101 25.3262L 7.3426 16.1631L 0.685209 9.67376L 9.8855 8.33688L 14 0L 18.1145 8.33688L 27.3148 9.67376L 20.6574 16.1631L 22.229 25.3262L 14 21Z" transform="translate(122 2)" stroke="#FFBA23"/>
</g>
</g>
</svg>

