<svg width="151" height="29" viewBox="0 0 151 29" version="1.1" xmlns="http://www.w3.org/2000/svg" xmlns:xlink="http://www.w3.org/1999/xlink">
<g id="Canvas" fill="none">
<g id="Group">
<g id="Star 2">
<path fill-rule="evenodd" clip-rule="evenodd" d="M 14 21L 5.77101 25.3262L 7.3426 16.1631L 0.685209 9.67376L 9.8855 8.33688L 14 0L 18.1145 8.33688L 27.3148 9.67376L 20.6574 16.1631L 22.229 25.3262L 14 21Z" transform="translate(0 2)" fill="#FFBA23"/>
</g>
<g id="Star 2 Copy">
<path d="M 14 21L 5.77101 25.3262L 7.3426 16.1631L 0.685209 9.67376L 9.8855 8.33688L 14 0L 18.1145 8.33688L 27.3148 9.67376L 20.6574 16.1631L 22.229 25.3262L 14 21Z" transform="translate(31 2)" stroke="#FFBA23"/>
</g>
<g id="Star 2 Copy 2">
<path d="M 14 21L 5.77101 25.3262L 7.3426 16.1631L 0.685209 9.67376L 9.8855 8.33688L 14 0L 18.1145 8.33688L 27.3148 9.67376L 20.6574 16.1631L 22.229 25.3262L 14 21Z" transform="translate(61 2)" stroke="#FFBA23"/>
</g>
<g id="Star 2 Copy 3">
<path d="M 14 21L 5.77101 25.3262L 7.3426 16.1631L 0.685209 9.67376L 9.8855 8.33688L 14 0L 18.1145 8.33688L 27.3148 9.67376L 20.6574 16.1631L 22.229 25.3262L 14 21Z" transform="translate(92 2)" stroke="#FFBA23"/>
</g>
<g id="Star 2 Copy 4">
<path d="M 14 21L 5.77101 25.3262L 7.3426 16.1631L 0.685209 9.67376L 9.8855 8.33688L 14 0L 18.1145 8.33688L 27.3148 9.67376L 20.6574 16.1631L 22.229 25.3262L 14 21Z" transform="translate(122 2)" stroke="#FFBA23"/>
</g>
</g>
</g>
</svg>

